<?xml version="1.0" standalone="no"?>
<!DOCTYPE svg PUBLIC "-//W3C//DTD SVG 20010904//EN"
 "http://www.w3.org/TR/2001/REC-SVG-20010904/DTD/svg10.dtd">
<svg version="1.0" xmlns="http://www.w3.org/2000/svg"
 width="1600.000000pt" height="1600.000000pt" viewBox="0 0 1600.000000 1600.000000"
 preserveAspectRatio="xMidYMid meet">

<g transform="translate(0.000000,1600.000000) scale(0.100000,-0.100000)"
fill="#000000" stroke="none">
<path d="M2463 15033 c-13 -2 -36 -21 -53 -41 l-30 -37 0 -3502 0 -3502 34
-34 c41 -42 75 -47 302 -47 123 0 164 -3 173 -13 8 -10 12 -766 13 -2791 l3
-2778 40 -34 40 -34 5016 0 5016 0 39 34 39 34 3 5678 c1 3124 0 5694 -3 5712
-3 18 -21 48 -41 67 l-35 35 -1666 0 -1667 0 -232 231 c-211 211 -236 232
-275 240 -58 11 -3741 11 -3799 0 -30 -6 -53 -19 -72 -40 l-28 -31 0 -188 c0
-133 -4 -192 -12 -200 -9 -9 -141 -12 -534 -12 l-521 0 -24 23 c-13 12 -71 74
-129 137 -93 102 -192 208 -270 289 -14 14 -52 55 -85 91 -32 36 -111 121
-175 190 -182 194 -186 198 -299 320 -169 182 -177 190 -212 200 -33 10 -510
12 -556 3z m516 -301 c102 -107 317 -336 362 -386 51 -58 36 -41 215 -231 77
-83 171 -184 209 -225 38 -41 130 -140 205 -220 75 -80 165 -176 200 -215 35
-38 123 -133 194 -209 72 -77 158 -169 192 -205 104 -114 208 -226 214 -231 3
-3 20 -22 38 -43 l32 -38 0 -1267 c0 -1221 -1 -1268 -19 -1297 -10 -16 -31
-44 -47 -61 -102 -111 -198 -217 -239 -264 -27 -30 -71 -79 -99 -109 -74 -79
-74 -79 -156 -171 -64 -73 -96 -108 -190 -210 -8 -9 -49 -54 -90 -100 -41 -47
-79 -90 -85 -96 -5 -6 -35 -38 -65 -70 -30 -33 -89 -97 -130 -144 -41 -47 -79
-90 -85 -96 -5 -6 -50 -55 -100 -110 -49 -54 -108 -119 -130 -143 -22 -25 -47
-52 -55 -61 -8 -9 -51 -56 -96 -105 -45 -50 -125 -138 -179 -198 l-98 -107
-171 2 -171 3 -3 3320 c-1 1826 0 3326 3 3333 3 9 42 12 147 12 l142 0 55 -58z
m6422 -1019 c158 -158 290 -295 292 -305 4 -13 -22 -37 -102 -96 -105 -78
-272 -199 -363 -264 -26 -18 -101 -71 -165 -118 l-118 -85 -1285 -5 c-1232 -5
-1286 -6 -1312 -24 -62 -42 -59 -152 5 -198 l32 -23 1085 -3 c596 -1 1088 -6
1093 -11 4 -4 -27 -32 -69 -60 -42 -29 -89 -61 -103 -72 -25 -19 -60 -19
-1441 -17 l-1415 3 0 385 0 385 1316 5 1317 5 28 29 c25 25 29 36 29 86 0 63
-17 92 -65 114 -18 8 -386 12 -1325 16 l-1300 5 -3 268 -2 267 1792 0 1792 0
287 -287z m-4138 -263 c-4 -91 -4 -52 5 -675 6 -471 8 -513 25 -539 39 -60
-53 -56 1624 -54 l1538 3 67 50 c37 28 97 70 133 95 37 25 115 81 176 125 60
44 157 114 215 155 57 41 145 104 193 140 49 36 99 72 111 80 85 58 268 190
473 340 59 44 122 87 138 97 35 20 69 79 69 118 0 27 -36 91 -64 114 -8 7 -13
17 -10 22 3 5 618 9 1444 9 l1440 0 5 -22 c3 -13 4 -2500 3 -5528 l-3 -5505
-4845 0 -4845 0 -3 710 c-1 391 0 724 3 742 l6 32 444 3 444 3 35 34 c31 30
36 42 36 79 0 55 -23 95 -67 116 -29 14 -88 16 -457 16 -349 0 -426 2 -435 14
-8 9 -11 60 -9 157 l3 144 448 5 449 5 34 37 c29 32 34 45 34 85 -1 48 -12 70
-54 103 -16 13 -89 16 -465 20 l-446 5 -3 135 c-1 74 0 145 3 158 l5 22 424 0
c351 0 430 3 459 15 98 41 104 175 10 224 -15 8 -152 11 -452 11 -415 0 -431
1 -441 19 -13 26 -13 266 0 292 10 18 26 19 441 19 465 0 467 0 503 54 23 36
21 101 -5 137 -41 58 -51 59 -515 59 l-424 0 -5 23 c-3 12 -4 83 -3 157 l3
135 446 5 c476 5 456 3 501 55 24 27 24 113 0 140 -45 52 -25 50 -501 55
l-446 5 -3 695 c-1 382 0 709 3 725 3 18 27 52 58 85 29 30 95 102 146 160 51
58 117 130 145 160 29 30 92 100 141 155 48 55 111 125 139 155 29 30 112 123
186 205 74 83 157 175 186 205 28 30 91 100 140 155 48 55 91 102 94 105 6 5
64 68 190 209 41 47 80 89 86 95 5 6 57 63 113 126 57 63 142 157 190 209 56
61 92 110 103 140 16 43 17 147 17 1376 0 1491 7 1359 -74 1447 -21 24 -84 92
-140 152 -55 60 -115 126 -134 145 -95 102 -181 192 -229 243 -31 31 -51 61
-48 67 5 8 121 10 404 9 l397 -3 -2 -75z"/>
<path d="M2946 13746 c-33 -31 -36 -38 -36 -92 l0 -59 753 -752 752 -753 52 0
c44 0 58 5 86 30 19 17 37 42 40 57 15 78 40 49 -743 833 -406 405 -748 745
-761 754 -13 9 -42 16 -66 16 -34 0 -48 -6 -77 -34z"/>
<path d="M2945 12589 c-32 -29 -35 -35 -35 -88 l0 -57 749 -751 c582 -583 757
-753 781 -758 48 -11 93 2 124 34 23 24 28 38 28 80 0 41 -5 57 -30 88 -17 21
-356 363 -754 761 l-724 722 -52 0 c-43 0 -57 -5 -87 -31z"/>
<path d="M2975 11454 c-49 -25 -65 -53 -65 -114 l0 -54 518 -518 517 -518 52
0 c47 0 56 4 88 35 31 32 35 42 35 87 l0 52 -507 508 c-279 279 -522 515 -539
523 -40 19 -61 19 -99 -1z"/>
<path d="M2947 10279 c-35 -29 -37 -34 -37 -89 l0 -59 296 -298 c163 -164 308
-306 323 -315 14 -10 44 -18 67 -18 33 0 48 7 77 35 43 42 53 81 33 130 -10
24 -115 136 -303 323 -159 158 -299 295 -313 305 -40 28 -99 22 -143 -14z"/>
<path d="M12102 13309 c-144 -70 -222 -189 -222 -339 0 -208 164 -373 370
-373 206 0 370 165 370 373 0 130 -50 225 -160 305 -63 45 -130 65 -219 65
-64 0 -86 -5 -139 -31z m233 -254 c30 -30 35 -42 35 -81 0 -55 -25 -95 -75
-118 -47 -23 -87 -13 -131 30 -29 30 -34 41 -34 84 0 43 4 53 37 85 31 30 43
35 84 35 42 0 53 -5 84 -35z"/>
<path d="M8825 12085 c-19 -20 -37 -45 -40 -58 -3 -12 -4 -935 -3 -2051 l3
-2028 39 -34 39 -34 296 0 c322 1 311 -1 354 60 16 23 17 152 17 2060 0 1908
-1 2037 -17 2060 -43 61 -31 59 -355 60 l-297 0 -36 -35z m450 -2085 l0 -1875
-100 -3 c-55 -2 -110 0 -122 3 l-23 5 0 1869 c0 1486 3 1870 13 1875 6 2 62 4
122 3 l110 -2 0 -1875z"/>
<path d="M9706 12105 c-11 -8 -28 -27 -38 -42 -17 -27 -18 -110 -18 -2061 0
-1490 3 -2039 11 -2055 6 -12 23 -32 38 -44 26 -22 31 -22 319 -23 328 0 326
0 363 71 19 37 19 78 19 2049 0 1971 0 2012 -19 2049 -37 71 -35 71 -363 71
-240 -1 -296 -3 -312 -15z m418 -235 l26 -10 0 -1860 0 -1860 -26 -10 c-28
-11 -183 -14 -208 -4 -15 6 -16 180 -16 1874 0 1485 3 1869 13 1873 22 10 185
7 211 -3z"/>
<path d="M10569 12103 c-63 -39 -59 117 -59 -2103 0 -1838 1 -2022 16 -2053
31 -66 39 -67 363 -67 l291 0 38 34 37 34 0 2052 0 2052 -37 34 -38 34 -292 0
c-254 0 -297 -3 -319 -17z m422 -233 c19 -11 19 -42 19 -1870 0 -1828 0 -1859
-19 -1870 -22 -11 -150 -14 -200 -4 l-31 7 0 1868 0 1868 23 4 c46 9 189 7
208 -3z"/>
<path d="M11415 12085 l-35 -36 0 -2049 0 -2049 35 -36 36 -35 299 0 299 0 36
35 35 36 0 2049 0 2049 -35 36 -36 35 -299 0 -299 0 -36 -35z m453 -217 c17
-17 17 -3719 0 -3736 -16 -16 -220 -16 -236 0 -17 17 -17 3719 0 3736 16 16
220 16 236 0z"/>
<path d="M6202 11699 c-61 -40 -66 -61 -72 -299 l-5 -215 -121 -5 c-133 -6
-159 -16 -194 -73 -17 -27 -20 -51 -20 -157 0 -85 -4 -130 -12 -138 -9 -9 -71
-12 -215 -12 -229 0 -256 -6 -291 -63 -29 -45 -28 -84 3 -129 35 -52 67 -58
296 -58 138 0 198 -3 207 -12 8 -8 12 -61 12 -173 0 -112 -4 -165 -12 -173 -9
-9 -70 -12 -215 -12 -230 0 -256 -6 -292 -70 -26 -47 -26 -74 -1 -115 36 -59
64 -65 294 -65 195 0 206 -1 216 -20 6 -12 9 -72 8 -152 l-3 -133 -215 -5
c-239 -6 -260 -11 -299 -73 -26 -43 -26 -71 0 -113 39 -63 41 -64 281 -64 205
0 218 -1 228 -19 5 -11 10 -71 10 -134 0 -128 10 -163 55 -199 26 -21 42 -23
150 -26 66 -2 125 -8 130 -13 6 -6 12 -105 15 -235 l5 -226 32 -29 c43 -38 77
-45 126 -28 78 27 81 40 87 297 l5 227 176 3 c176 2 177 2 183 -20 3 -13 6
-111 6 -219 0 -238 7 -260 89 -288 43 -14 100 2 133 36 22 24 23 32 28 256 l5
232 144 3 c109 2 146 -1 153 -10 4 -7 8 -106 8 -219 0 -197 1 -207 23 -240 33
-50 85 -73 135 -60 21 6 49 22 63 37 24 25 24 28 27 247 2 137 7 226 14 234 7
9 41 13 112 13 116 0 155 9 188 42 21 21 23 32 28 170 3 80 9 150 13 155 5 4
111 10 237 13 221 5 229 6 253 28 13 12 30 41 37 63 13 37 12 45 -6 77 -10 20
-34 47 -53 59 -33 22 -42 23 -245 23 -152 0 -215 3 -224 12 -17 17 -17 318 1
341 10 14 42 16 232 19 201 3 222 5 247 23 53 39 62 140 15 182 -44 40 -60 43
-267 43 -120 0 -209 4 -221 10 -17 10 -19 22 -19 136 0 69 5 134 10 145 10 18
23 19 198 19 217 1 264 8 301 44 47 48 30 162 -29 193 -8 4 -115 10 -238 13
-183 4 -224 8 -232 20 -5 8 -10 74 -10 146 0 118 -2 134 -21 158 -34 44 -58
51 -189 56 l-125 5 -5 225 c-5 245 -7 252 -67 291 -54 36 -122 16 -164 -47
-17 -26 -19 -50 -19 -240 0 -150 -3 -213 -12 -222 -15 -15 -320 -17 -349 -2
-18 10 -19 23 -19 230 l0 218 -26 31 c-14 17 -43 36 -64 42 -33 10 -44 9 -77
-8 -67 -34 -73 -59 -73 -293 0 -147 -3 -209 -12 -218 -17 -17 -279 -17 -296 0
-9 9 -12 73 -12 229 0 242 -2 249 -74 283 -45 21 -64 20 -104 -5z m1453 -1614
l0 -840 -788 -3 c-532 -1 -794 1 -808 8 -19 10 -19 29 -19 833 0 629 3 826 12
835 9 9 197 12 808 10 l795 -3 0 -840z"/>
<path d="M6215 10790 c-27 -11 -61 -49 -74 -83 -7 -19 -11 -227 -11 -626 l0
-597 23 -44 c12 -25 33 -51 47 -57 19 -10 169 -12 667 -10 l642 2 21 22 c11
12 25 34 30 48 16 42 13 1253 -3 1285 -7 13 -28 35 -46 47 l-34 23 -621 -1
c-342 0 -630 -4 -641 -9z m1100 -262 c3 -13 4 -221 3 -463 l-3 -440 -454 -3
c-327 -1 -458 1 -467 9 -11 9 -14 91 -14 446 0 280 4 441 10 454 10 18 26 19
465 19 l455 0 5 -22z"/>
<path d="M7155 8191 c-136 -18 -256 -81 -371 -195 -86 -86 -133 -166 -171
-291 -24 -81 -24 -256 1 -340 72 -238 228 -392 476 -471 82 -26 254 -24 344 4
268 85 447 294 475 557 36 328 -141 606 -454 712 -69 24 -211 35 -300 24z
m274 -283 c121 -58 216 -185 230 -308 16 -140 -19 -254 -104 -343 -89 -92
-177 -130 -300 -130 -181 0 -323 101 -390 278 -25 66 -26 192 -2 259 21 59 76
143 117 179 118 106 306 133 449 65z"/>
<path d="M4223 8099 c-36 -23 -63 -88 -63 -154 0 -22 -5 -46 -12 -53 -8 -8
-46 -12 -106 -12 l-95 0 -33 -36 c-19 -19 -35 -45 -36 -57 -7 -108 41 -148
187 -157 l90 -5 3 -109 c2 -71 -1 -113 -9 -122 -8 -10 -37 -14 -107 -14 l-95
0 -33 -36 c-19 -19 -35 -45 -36 -57 -7 -108 41 -148 187 -157 l90 -5 6 -51 c8
-64 26 -101 62 -128 28 -20 41 -21 450 -24 282 -2 434 0 459 8 52 15 82 60 88
135 l5 60 90 6 c50 3 104 11 120 18 63 25 91 107 58 171 -26 50 -54 60 -165
60 -116 0 -110 -7 -106 145 l3 100 90 6 c50 3 104 11 120 18 63 25 91 107 58
171 -26 49 -54 60 -164 60 -111 0 -109 -1 -109 87 0 38 -6 66 -20 88 -42 67
-23 65 -507 65 -423 0 -439 -1 -470 -21z m745 -559 c1 -179 0 -335 -3 -347
l-5 -23 -259 0 c-223 0 -262 2 -275 16 -14 13 -16 58 -16 334 0 175 3 326 6
334 6 15 37 16 278 14 l271 -3 3 -325z"/>
<path d="M9044 7631 c-17 -10 -41 -35 -53 -54 l-21 -34 0 -1037 c0 -1005 1
-1038 19 -1074 11 -20 179 -195 373 -389 291 -290 361 -355 397 -368 38 -13
172 -15 1050 -15 641 0 1019 4 1042 10 44 12 75 38 89 74 14 39 14 2094 -1
2133 -14 36 -713 737 -757 757 -29 14 -145 16 -1070 16 -1000 0 -1038 -1
-1068 -19z m1583 -683 l454 -453 58 0 c48 0 64 4 84 23 33 31 48 85 35 125 -7
21 -125 147 -355 378 -201 202 -343 353 -341 360 4 11 57 15 263 17 l259 2
313 -313 313 -313 0 -912 c0 -899 0 -912 -20 -932 -19 -19 -33 -20 -411 -20
-265 0 -397 4 -412 11 -12 6 -220 209 -462 450 -386 386 -445 440 -477 445
-94 16 -148 -29 -148 -121 l0 -49 358 -359 c309 -312 354 -361 337 -368 -28
-11 -607 -11 -625 1 -8 5 -153 147 -322 317 l-308 308 0 912 c0 815 2 913 16
927 14 14 71 16 477 16 l461 0 453 -452z"/>
<path d="M4984 6620 c-12 -5 -34 -24 -48 -43 l-26 -34 0 -287 c0 -271 1 -290
20 -316 46 -64 -55 -60 1494 -60 1569 0 1452 -5 1495 70 20 36 21 52 21 305 0
297 -4 317 -65 355 -32 20 -46 20 -1451 19 -781 0 -1429 -4 -1440 -9z m2700
-256 c8 -20 8 -182 0 -212 l-6 -22 -1257 2 -1256 3 -3 109 c-1 61 0 116 2 123
4 11 233 13 1260 13 1134 0 1254 -2 1260 -16z"/>
<path d="M5005 5440 c-27 -5 -48 -18 -67 -41 l-28 -33 0 -289 c0 -257 2 -292
18 -319 35 -61 -48 -58 1496 -58 1324 0 1413 1 1445 18 67 34 71 54 71 352 0
291 -3 310 -63 354 -28 21 -29 21 -1430 22 -771 1 -1420 -2 -1442 -6z m2659
-250 c26 -9 26 -11 26 -109 0 -55 -3 -106 -6 -115 -6 -14 -126 -16 -1265 -16
l-1259 0 0 118 c0 65 3 122 7 125 11 11 2468 8 2497 -3z"/>
<path d="M7455 4422 c-16 -10 -35 -25 -42 -33 -11 -14 -106 -191 -174 -324
-17 -33 -47 -91 -68 -130 -20 -38 -69 -131 -108 -205 -39 -74 -90 -171 -113
-215 -23 -44 -67 -127 -98 -185 -30 -58 -61 -116 -69 -130 -36 -68 -19 -142
40 -179 l34 -21 1738 0 c1961 0 1778 -8 1838 83 39 59 87 134 102 159 11 19
68 108 150 238 29 47 79 126 110 175 30 50 80 128 110 175 29 47 73 116 97
153 24 38 50 79 58 92 72 113 122 203 127 226 6 34 -19 88 -55 114 -27 20 -45
20 -1837 23 -1742 2 -1811 1 -1840 -16z m3353 -240 c17 -11 10 -26 -62 -137
-33 -52 -88 -137 -121 -190 -33 -53 -86 -137 -119 -188 -32 -51 -75 -118 -95
-149 -20 -31 -58 -94 -86 -138 -27 -45 -58 -93 -68 -106 l-18 -24 -1564 0
c-1076 0 -1566 3 -1570 10 -4 6 -2 16 3 23 5 7 40 71 77 142 37 72 84 162 105
200 21 39 62 117 92 175 31 58 77 146 103 195 27 50 59 111 72 137 13 25 29
49 36 51 21 9 3201 7 3215 -1z"/>
<path d="M10195 4073 c-67 -35 -104 -96 -105 -168 0 -40 27 -104 57 -133 67
-67 183 -68 257 -3 57 50 73 156 33 226 -34 61 -90 94 -157 94 -31 0 -68 -7
-85 -16z"/>
<path d="M7572 3702 c-57 -30 -100 -80 -107 -123 -22 -129 58 -232 180 -232
122 0 212 124 175 240 -33 103 -161 162 -248 115z"/>
<path d="M4635 3980 c-69 -45 -65 -8 -65 -603 0 -594 -3 -565 65 -607 32 -20
48 -20 810 -20 756 0 779 1 809 20 63 38 61 21 61 609 0 520 -1 537 -20 563
-46 61 1 58 -852 58 -755 0 -779 -1 -808 -20z m430 -355 l0 -120 -120 0 -120
0 -3 109 c-1 61 0 116 2 123 4 11 32 13 123 11 l118 -3 0 -120z m500 0 l0
-120 -120 0 -120 0 -3 109 c-1 61 0 116 2 123 4 11 32 13 123 11 l118 -3 0
-120z m500 0 l0 -120 -120 0 -120 0 -3 109 c-1 61 0 116 2 123 4 11 32 13 123
11 l118 -3 0 -120z m-1000 -500 l0 -120 -120 0 -120 0 -3 109 c-1 61 0 116 2
123 4 11 32 13 123 11 l118 -3 0 -120z m500 0 l0 -120 -120 0 -120 0 -3 109
c-1 61 0 116 2 123 4 11 32 13 123 11 l118 -3 0 -120z m500 0 l0 -120 -120 0
-120 0 -3 109 c-1 61 0 116 2 123 4 11 32 13 123 11 l118 -3 0 -120z"/>
<path d="M3705 3403 c-188 -27 -325 -184 -325 -371 0 -91 18 -147 72 -219 113
-154 314 -198 483 -106 39 21 117 99 138 138 65 120 65 249 0 370 -65 122
-233 207 -368 188z m91 -259 c49 -23 74 -63 74 -118 0 -39 -5 -51 -35 -81 -31
-30 -42 -35 -84 -35 -41 0 -53 5 -84 35 -32 31 -37 42 -37 83 0 53 25 91 75
117 38 19 49 19 91 -1z"/>
<path d="M12205 3403 c-264 -38 -405 -321 -278 -558 27 -51 108 -122 176 -154
140 -67 318 -27 428 96 103 116 120 283 42 428 -20 38 -89 111 -128 135 -61
38 -172 63 -240 53z m91 -259 c49 -23 74 -63 74 -118 0 -39 -5 -51 -35 -81
-31 -30 -42 -35 -84 -35 -41 0 -53 5 -84 35 -32 31 -37 42 -37 83 0 53 25 91
75 117 38 19 49 19 91 -1z"/>
</g>
</svg>
